<mxfile host="65bd71144e">
    <diagram name="Page-1" id="uXQi4zw4CX_Gxyn2YLh3">
        <mxGraphModel dx="729" dy="804" grid="1" gridSize="10" guides="1" tooltips="1" connect="1" arrows="1" fold="1" page="1" pageScale="1" pageWidth="850" pageHeight="1100" math="0" shadow="0">
            <root>
                <mxCell id="0"/>
                <mxCell id="1" parent="0"/>
                <mxCell id="2" style="rounded=1;strokeColor=#000000;strokeWidth=2;" parent="1" vertex="1">
                    <mxGeometry x="20" y="20" width="710" height="470" as="geometry"/>
                </mxCell>
                <mxCell id="3" value="UML Class Diagram: Product Management System" style="text;html=1;fontSize=18;fontStyle=1;strokeColor=none;fillColor=none;" parent="1" vertex="1">
                    <mxGeometry x="40" y="30" width="400" height="30" as="geometry"/>
                </mxCell>
                <mxCell id="4" value="&lt;b&gt;Product&lt;/b&gt;&#xa;- id: int&#xa;- name: String&#xa;- price: double&#xa;- quantity: int" style="swimlane;html=1;rounded=1;strokeColor=#333399;" parent="1" vertex="1">
                    <mxGeometry x="140" y="110" width="180" height="100" as="geometry"/>
                </mxCell>
                <mxCell id="5" value="&lt;b&gt;Admin&lt;/b&gt;&#xa;- id: int&#xa;- username: String&#xa;- password: String" style="swimlane;html=1;rounded=1;strokeColor=#993333;" parent="1" vertex="1">
                    <mxGeometry x="450" y="110" width="180" height="80" as="geometry"/>
                </mxCell>
                <mxCell id="6" value="&lt;b&gt;Manager&lt;/b&gt;&#xa;- id: int&#xa;- username: String&#xa;- password: String" style="swimlane;html=1;rounded=1;strokeColor=#339966;" parent="1" vertex="1">
                    <mxGeometry x="390" y="280" width="180" height="80" as="geometry"/>
                </mxCell>
                <mxCell id="7" value="&lt;b&gt;ProductService&lt;/b&gt;&#xa;+ addProduct(p: Product): void&#xa;+ deleteProduct(id: int): void&#xa;+ viewProduct(id: int): Product" style="swimlane;html=1;rounded=1;strokeColor=#336699;" parent="1" vertex="1">
                    <mxGeometry x="60" y="300" width="180" height="100" as="geometry"/>
                </mxCell>
                <mxCell id="8" style="endArrow=block;endFill=1;html=1;" parent="1" source="5" target="7" edge="1">
                    <mxGeometry relative="1" as="geometry"/>
                </mxCell>
                <mxCell id="9" style="endArrow=block;endFill=1;html=1;" parent="1" source="6" target="7" edge="1">
                    <mxGeometry relative="1" as="geometry"/>
                </mxCell>
                <mxCell id="10" style="endArrow=open;endFill=0;html=1;" parent="1" source="7" target="4" edge="1">
                    <mxGeometry relative="1" as="geometry"/>
                </mxCell>
            </root>
        </mxGraphModel>
    </diagram>
</mxfile>